<?xml version="1.0" encoding="iso-8859-1"?>
<!-- Generator: Adobe Illustrator 19.0.0, SVG Export Plug-In . SVG Version: 6.00 Build 0)  -->
<svg version="1.1" id="Layer_1" xmlns="http://www.w3.org/2000/svg" xmlns:xlink="http://www.w3.org/1999/xlink" x="0px" y="0px"
	 viewBox="0 0 504.981 504.981" style="enable-background:new 0 0 504.981 504.981;" xml:space="preserve">
<g>
	<path style="fill:#D2D2D7;" d="M424.921,222.105c-4.46,15.28-11.05,29.65-19.42,42.78c-5.71,8.95-10.03,18.65-12.92,28.76
		c-2.89,10.12-4.35,20.65-4.35,31.27v162.26c0,5.69-4.62,10.31-10.31,10.31h-152.84c-5.69,0-10.3-4.61-10.3-10.3v-18.59
		c0-12.92-7.44-23.85-18.02-29.15c-0.08-0.04-0.16-0.08-0.24-0.12c-4.07-2-8.6-3.16-13.35-3.3c-0.74-0.02-1.48-0.01-2.22,0.02
		c-1.36,0.06-2.74,0.2-4.13,0.43l-17.88,2.99c-18.44,0-33.39-14.95-33.39-33.39v-59.55c0-5.6-4.53-10.14-10.13-10.15l-10.07-0.02
		c-23.12-1.05-38.43-24.59-30.99-46.5l30.52-90c-1.49-8.91-2.28-18.06-2.28-27.39c0-91.43,74.38-165.48,165.92-164.96
		c5.92,0.04,11.76,0.37,17.51,1.01c0.38,0.03,0.76,0.08,1.14,0.12c80.74,9.45,143.34,76.61,145.31,159.83
		C432.931,187.195,430.241,205.235,424.921,222.105z"/>
	<path style="fill:#EBEBF0;" d="M424.921,222.105c-4.46,15.28-11.05,29.65-19.42,42.78c-5.71,8.95-10.03,18.65-12.92,28.76
		c-2.89,10.12-4.35,20.65-4.35,31.27v162.26c0,5.69-4.62,10.31-10.31,10.31h-116.09c-5.69,0-10.3-4.61-10.3-10.3v-18.59
		c0-12.92-7.44-23.85-18.02-29.15c-4.13-2.07-8.75-3.28-13.59-3.42c-2.08-0.05-4.2,0.09-6.35,0.45l-17.05,2.85
		c-4.07-2-8.6-3.16-13.35-3.3c-0.74-0.02-1.48-0.01-2.22,0.02c-11.05-5.45-18.65-16.82-18.65-29.97v-59.55
		c0-5.6-4.53-10.14-10.13-10.15l-10.07-0.02c-23.12-1.05-38.43-24.59-30.99-46.5l30.52-90c-1.49-8.91-2.28-18.06-2.28-27.39
		c0-84.93,64.18-154.87,146.68-163.95c0.38,0.03,0.76,0.08,1.14,0.12c80.74,9.45,143.34,76.61,145.31,159.83
		C432.931,187.195,430.241,205.235,424.921,222.105z"/>
	<path style="fill:#FD9A9A;" d="M391.372,200.667h-0.006c-2.466,2.322-5.421,4.618-8.702,6.633
		c22.213,32.29-13.288,73.474-48.456,56.28c-2.566,6.402-6.986,11.88-12.585,15.757c-22.562,15.624-53.543-0.322-54.413-27.279
		c0-2.367,1.034,12.39-10.638,23.656c-6.258,6.044-14.769,9.777-24.101,9.777c-14.573,0-27.117-9.106-32.248-21.911
		c-4.952,2.421-10.505,3.814-16.375,3.877c-31.011,0.363-49.673-34.671-32.081-60.157c-39.966-24.557-32.322-84.358,11.337-98.634
		c-12.922-28.47,12.226-60.382,43.493-53.258c20.842-23.338,59.126-9.229,60.585,21.431c0,0.046,0.069,0.046,0.069,0
		c0.879-18.362,16.175-33.075,34.71-33.075c10.256,0,19.507,4.513,25.875,11.643c31.092-7.084,56.494,24.613,43.493,53.258
		C410.778,121.788,421.688,172.364,391.372,200.667z"/>
	<path style="fill:#FC7979;" d="M386.969,215.511c-7.552,19.962-30.278,30.31-50.458,22.043c-1.265-0.518-2.725,0.042-3.324,1.271
		c-5.705,11.693-17.671,19.607-31.226,19.607c-18.801,0-34.098-15.095-34.75-33.433c0-2.07,1.038,12.388-10.638,23.656
		c-16.554,15.989-43.568,11.783-54.595-8.413c-1.182-2.164-3.521-3.417-5.979-3.224c-26.203,2.059-24.266-16.754-23.812-25.454
		c0.138-2.637-1.069-5.176-3.2-6.735c-13.611-9.961-19.935-26.049-19.935-44.205c0-18.183,7.824-30.842,19.369-42.077
		c2.6-2.531-3.08-6.564-5.108-9.569l-0.208-0.312c-43.535,14.474-51.318,74.068-11.337,98.634c-2.421,3.507-4.27,7.437-5.42,11.655
		c-0.994,3.629-1.462,7.471-1.329,11.441c0.934,27.486,30.194,45.413,55.205,33.184c5.131,12.805,17.676,21.911,32.248,21.911
		c18.143,0,33.155-14.151,34.6-31.688c0.048-0.476,0.139-1.985,0.139-1.745c0.515,15.973,12.412,29.828,28.329,32.832
		c-1.972,15.882-6.438,34.081-16.183,47.796c-1.29,1.816,0.553,4.213,2.656,3.477c3.076-1.077,6.958-2.544,11.338-4.443
		c28.783-12.473,50.915-35.924,62.145-64.527C379.979,264.314,395.85,239.028,386.969,215.511z"/>
	<g>
		<path d="M388.545,49.247c-32.091-31.5-74.701-48.988-119.978-49.245l-1-0.002C162.186,0,80.818,94.258,97.18,199.214
			c-29.841,90.18-32.217,89.737-32.217,102.05c0,24.24,19.824,42.589,40.374,42.589l12.709,0.023v20.42c0,4.142,3.357,7.5,7.5,7.5
			c4.143,0,7.5-3.358,7.5-7.5v-27.906c0-4.137-3.35-7.492-7.486-7.5l-20.021-0.037c-18.108-0.927-29.917-19.395-24.08-36.595
			c31.715-94.477,31.386-90.25,30.819-93.639c-1.443-8.628-2.175-17.429-2.175-26.157C110.103,85.638,180.741,15,267.567,15
			l0.912,0.002c126.206,0.713,198.238,139.936,130.7,245.846c-12.07,18.929-18.45,41.082-18.45,64.063v162.266
			c0,1.546-1.258,2.804-2.804,2.804H225.083c-1.547,0-2.805-1.258-2.805-2.804v-18.582c0-24.524-22.013-43.658-46.692-39.521
			l-17.229,2.886c-14.011-0.312-25.312-11.806-25.312-25.89v-11.774c0-4.142-3.357-7.5-7.5-7.5c-4.143,0-7.5,3.358-7.5,7.5v11.774
			c0,22.55,18.346,40.896,40.896,40.896c2.626,0,18.714-3.451,23.331-3.451c13.788,0,25.005,11.25,25.005,25.08v18.582
			c0,9.817,7.987,17.804,17.805,17.804h152.843c9.817,0,17.804-7.987,17.804-17.804V324.912c0-20.119,5.566-39.483,16.099-55.999
			C455.181,200.924,449.375,108.955,388.545,49.247z"/>
		<path d="M145.966,209.503c-16.266,34.824,16.414,73,53.45,61.968c15.588,24.992,51.713,26.068,68.778,1.769
			c4.713,6.72,11.399,12.012,19.32,14.982c-2.535,16.702-7.426,30.484-14.271,40.12c-5.517,7.759,2.26,18.045,11.245,14.901
			c20.325-7.114,67.832-28.163,80.341-72.525c24.985-8.858,36.741-37.383,25.605-61.215c35.166-27.742,29.037-83.123-11.497-102.477
			c7.752-30.283-17.392-59.634-49.204-55.625c-18.379-16.698-47.156-13.612-61.533,6.87c-14.378-20.483-43.156-23.568-61.533-6.87
			c-31.742-4-56.983,25.236-49.204,55.625C116.868,126.409,110.844,181.795,145.966,209.503z M275.719,193.746
			c18.565-2.085,33.045-17.872,33.045-36.985c0-4.142-3.357-7.5-7.5-7.5s-7.5,3.358-7.5,7.5c0,10.826-7.782,19.864-18.045,21.826
			V81.931c0-18.656,19.024-31.44,36.266-24.284c-5.978,3.675-11.111,8.766-14.915,15.048c-2.146,3.543-1.012,8.155,2.532,10.3
			c3.54,2.144,8.154,1.011,10.3-2.532c18.806-31.065,68.176-7.251,52.899,27.447c-4.632,10.501-15.137,17.852-27.332,17.852
			c-4.143,0-7.5,3.358-7.5,7.5s3.357,7.5,7.5,7.5c15.559,0,29.289-7.965,37.339-20.028c29.874,14.579,34.661,55.321,9.038,76.405
			c-8.152-8.35-19.519-13.547-32.082-13.547c-4.143,0-7.5,3.358-7.5,7.5s3.357,7.5,7.5,7.5c21.28,0,35.781,21.72,27.511,41.476
			c-4.597,10.848-15.335,18.248-27.511,18.248c-8.958,0-10.306,12.927-1.604,14.824c-10.453,26.075-36.248,41.999-55.095,50.522
			c5.029-11.121,8.442-24.527,10.183-40.053c0.438-3.902-2.209-7.481-6.068-8.207c-12.436-2.336-21.461-13.2-21.461-25.831V193.746z
			 M163.592,120.734c8.05,12.063,21.78,20.028,37.339,20.028c4.143,0,7.5-3.358,7.5-7.5s-3.357-7.5-7.5-7.5
			c-12.342,0-23.197-7.582-27.694-18.711c-8.827-21.84,10.199-45.532,34.366-40.257c7.812,1.765,14.612,6.592,18.896,13.669
			c2.146,3.544,6.758,4.675,10.3,2.532c3.544-2.145,4.678-6.756,2.532-10.3c-3.803-6.283-8.937-11.373-14.915-15.048
			c17.234-7.153,36.266,5.616,36.266,24.284v59.164c-10.263-1.962-18.045-11-18.045-21.826c0-4.142-3.357-7.5-7.5-7.5
			s-7.5,3.358-7.5,7.5c0,19.112,14.48,34.899,33.045,36.985v55.69c-5.39-3.627-11.874-5.746-18.845-5.746h-26.721
			c-4.143,0-7.5,3.358-7.5,7.5s3.357,7.5,7.5,7.5h26.721c10.391,0,18.845,8.454,18.845,18.845v9.53
			c0,14.496-11.793,26.289-26.288,26.289c-10.627,0-20.439-6.674-24.417-16.609c-1.625-4.054-6.352-5.858-10.255-3.951
			c-24.226,11.836-50.599-12.266-40.99-37.468c4.34-11.351,15.275-19.241,27.903-19.241c4.143,0,7.5-3.358,7.5-7.5
			s-3.357-7.5-7.5-7.5c-12.563,0-23.929,5.198-32.081,13.547c-10.504-8.643-16.624-21.422-16.624-35.287
			C137.93,144.168,148.028,128.33,163.592,120.734z"/>
	</g>
</g>
<g>
</g>
<g>
</g>
<g>
</g>
<g>
</g>
<g>
</g>
<g>
</g>
<g>
</g>
<g>
</g>
<g>
</g>
<g>
</g>
<g>
</g>
<g>
</g>
<g>
</g>
<g>
</g>
<g>
</g>
</svg>
